<?xml version="1.0" encoding="UTF-8" standalone="no"?>
<!DOCTYPE svg PUBLIC "-//W3C//DTD SVG 1.1//EN"
 "http://www.w3.org/Graphics/SVG/1.1/DTD/svg11.dtd">
<!-- Generated by graphviz version 12.1.0 (20240811.2233)
 -->
<!-- Title: Composition&#45;0 Pages: 1 -->
<svg width="129pt" height="310pt"
 viewBox="0.00 0.00 128.89 310.29" xmlns="http://www.w3.org/2000/svg" xmlns:xlink="http://www.w3.org/1999/xlink">
<g id="graph0" class="graph" transform="scale(1 1) rotate(0) translate(4 306.29)">
<title>Composition&#45;0</title>
<polygon fill="white" stroke="none" points="-4,4 -4,-306.29 124.89,-306.29 124.89,4 -4,4"/>
<text text-anchor="middle" x="60.45" y="-7.2" font-family="Times,serif" font-size="14.00">Composition&#45;0</text>
<!-- node_attract2 -->
<g id="node1" class="node">
<title>node_attract2</title>
<ellipse fill="none" stroke="brown" stroke-width="3" cx="60.45" cy="-84.95" rx="56.45" ry="56.45"/>
<ellipse fill="none" stroke="brown" stroke-width="3" cx="60.45" cy="-84.95" rx="60.45" ry="60.45"/>
<text text-anchor="middle" x="60.45" y="-80.67" font-family="arial" font-size="12.00">node_attract2</text>
</g>
<!-- node_attract1 -->
<g id="node2" class="node">
<title>node_attract1</title>
<ellipse fill="none" stroke="brown" stroke-width="3" cx="60.45" cy="-241.84" rx="56.45" ry="56.45"/>
<ellipse fill="none" stroke="brown" stroke-width="3" cx="60.45" cy="-241.84" rx="60.45" ry="60.45"/>
<text text-anchor="middle" x="60.45" y="-237.57" font-family="arial" font-size="12.00">node_attract1</text>
</g>
<!-- node_attract2&#45;&gt;node_attract1 -->
<g id="edge1" class="edge">
<title>node_attract2&#45;&gt;node_attract1</title>
<path fill="none" stroke="black" d="M53.85,-146.28C53.71,-153.72 53.67,-161.39 53.71,-168.99"/>
<polygon fill="black" stroke="black" points="50.21,-168.95 53.83,-178.91 57.21,-168.87 50.21,-168.95"/>
</g>
<!-- node_attract1&#45;&gt;node_attract2 -->
<g id="edge2" class="edge">
<title>node_attract1&#45;&gt;node_attract2</title>
<path fill="none" stroke="black" d="M67.05,-180.42C67.18,-172.97 67.22,-165.3 67.18,-157.71"/>
<polygon fill="black" stroke="black" points="70.68,-157.75 67.07,-147.79 63.68,-157.83 70.68,-157.75"/>
</g>
</g>
</svg>