<?xml version="1.0" encoding="UTF-8" standalone="no"?>
<!DOCTYPE svg PUBLIC "-//W3C//DTD SVG 1.1//EN"
 "http://www.w3.org/Graphics/SVG/1.1/DTD/svg11.dtd">
<!-- Generated by graphviz version 12.1.0 (20240811.2233)
 -->
<!-- Title: Composition&#45;2 Pages: 1 -->
<svg width="142pt" height="337pt"
 viewBox="0.00 0.00 142.25 337.00" xmlns="http://www.w3.org/2000/svg" xmlns:xlink="http://www.w3.org/1999/xlink">
<g id="graph0" class="graph" transform="scale(1 1) rotate(0) translate(4 333)">
<title>Composition&#45;2</title>
<polygon fill="white" stroke="none" points="-4,4 -4,-333 138.25,-333 138.25,4 -4,4"/>
<text text-anchor="middle" x="67.13" y="-7.2" font-family="Times,serif" font-size="14.00">Composition&#45;2</text>
<!-- necker_node_b -->
<g id="node1" class="node">
<title>necker_node_b</title>
<ellipse fill="none" stroke="brown" stroke-width="3" cx="67.13" cy="-91.63" rx="63.13" ry="63.13"/>
<ellipse fill="none" stroke="brown" stroke-width="3" cx="67.13" cy="-91.63" rx="67.13" ry="67.13"/>
<text text-anchor="middle" x="67.13" y="-87.35" font-family="arial" font-size="12.00">necker_node_b</text>
</g>
<!-- necker_node_a -->
<g id="node2" class="node">
<title>necker_node_a</title>
<ellipse fill="none" stroke="brown" stroke-width="3" cx="67.13" cy="-261.88" rx="63.13" ry="63.13"/>
<ellipse fill="none" stroke="brown" stroke-width="3" cx="67.13" cy="-261.88" rx="67.13" ry="67.13"/>
<text text-anchor="middle" x="67.13" y="-257.6" font-family="arial" font-size="12.00">necker_node_a</text>
</g>
<!-- necker_node_b&#45;&gt;necker_node_a -->
<g id="edge1" class="edge">
<title>necker_node_b&#45;&gt;necker_node_a</title>
<path fill="none" stroke="black" d="M60.5,-159.61C60.39,-167.03 60.35,-174.64 60.39,-182.19"/>
<polygon fill="black" stroke="black" points="56.89,-182.1 60.48,-192.06 63.89,-182.03 56.89,-182.1"/>
</g>
<!-- necker_node_a&#45;&gt;necker_node_b -->
<g id="edge2" class="edge">
<title>necker_node_a&#45;&gt;necker_node_b</title>
<path fill="none" stroke="black" d="M73.75,-193.58C73.86,-186.15 73.9,-178.53 73.86,-170.98"/>
<polygon fill="black" stroke="black" points="77.36,-171.08 73.76,-161.12 70.36,-171.15 77.36,-171.08"/>
</g>
</g>
</svg>