<?xml version="1.0" encoding="UTF-8" standalone="no"?>
<!DOCTYPE svg PUBLIC "-//W3C//DTD SVG 1.1//EN"
 "http://www.w3.org/Graphics/SVG/1.1/DTD/svg11.dtd">
<!-- Generated by graphviz version 12.1.0 (20240811.2233)
 -->
<!-- Title: TD_Learning_Figure_5A Pages: 1 -->
<svg width="1083pt" height="357pt"
 viewBox="0.00 0.00 1083.17 356.50" xmlns="http://www.w3.org/2000/svg" xmlns:xlink="http://www.w3.org/1999/xlink">
<g id="graph0" class="graph" transform="scale(1 1) rotate(0) translate(4 352.5)">
<title>TD_Learning_Figure_5A</title>
<polygon fill="white" stroke="none" points="-4,4 -4,-352.5 1079.17,-352.5 1079.17,4 -4,4"/>
<text text-anchor="middle" x="537.59" y="-7.2" font-family="Times,serif" font-size="14.00">TD_Learning_Figure_5A</text>
<!-- Target -->
<g id="node1" class="node">
<title>Target</title>
<ellipse fill="none" stroke="orange" stroke-width="3" cx="262.95" cy="-42.5" rx="31.17" ry="18"/>
<text text-anchor="middle" x="262.95" y="-38.23" font-family="arial" font-size="12.00">Target</text>
</g>
<!-- PredictionError -->
<g id="node6" class="node">
<title>PredictionError</title>
<ellipse fill="none" stroke="orange" cx="262.95" cy="-114.5" rx="61.22" ry="18"/>
<text text-anchor="middle" x="262.95" y="-110.22" font-family="arial" font-size="12.00">PredictionError</text>
</g>
<!-- Target&#45;&gt;PredictionError -->
<g id="edge5" class="edge">
<title>Target&#45;&gt;PredictionError</title>
<path fill="none" stroke="orange" d="M262.95,-61.89C262.95,-68.99 262.95,-77.28 262.95,-85.11"/>
<polygon fill="orange" stroke="orange" points="259.45,-84.92 262.95,-94.92 266.45,-84.92 259.45,-84.92"/>
</g>
<!-- Sample Mechanism -->
<g id="node2" class="node">
<title>Sample Mechanism</title>
<ellipse fill="none" stroke="green" stroke-width="3" cx="546.95" cy="-114.5" rx="77.44" ry="18"/>
<text text-anchor="middle" x="546.95" y="-110.22" font-family="arial" font-size="12.00">Sample Mechanism</text>
</g>
<!-- MappingProjection from Sample Mechanism[RESULT] to Action Selection[InputPort&#45;0] -->
<g id="node3" class="node">
<title>MappingProjection from Sample Mechanism[RESULT] to Action Selection[InputPort&#45;0]</title>
<polygon fill="none" stroke="black" points="649.95,-276.5 224.72,-258.5 649.95,-240.5 1075.17,-258.5 649.95,-276.5"/>
<text text-anchor="middle" x="649.95" y="-254.22" font-family="arial" font-size="12.00">MappingProjection from Sample Mechanism[RESULT] to Action Selection[InputPort&#45;0]</text>
</g>
<!-- Sample Mechanism&#45;&gt;MappingProjection from Sample Mechanism[RESULT] to Action Selection[InputPort&#45;0] -->
<g id="edge1" class="edge">
<title>Sample Mechanism&#45;&gt;MappingProjection from Sample Mechanism[RESULT] to Action Selection[InputPort&#45;0]</title>
<path fill="none" stroke="black" d="M621.28,-121.03C687.08,-127.65 776,-141.43 797.95,-168.5 826.65,-203.9 769.09,-228.64 717.59,-242.9"/>
</g>
<!-- Learning Mechanism for MappingProjection from Sample Mechanism[RESULT] to Action Selection[InputPort&#45;0] -->
<g id="node5" class="node">
<title>Learning Mechanism for MappingProjection from Sample Mechanism[RESULT] to Action Selection[InputPort&#45;0]</title>
<ellipse fill="none" stroke="orange" cx="404.95" cy="-186.5" rx="384.16" ry="18"/>
<text text-anchor="middle" x="404.95" y="-182.22" font-family="arial" font-size="12.00">Learning Mechanism for MappingProjection from Sample Mechanism[RESULT] to Action Selection[InputPort&#45;0]</text>
</g>
<!-- Sample Mechanism&#45;&gt;Learning Mechanism for MappingProjection from Sample Mechanism[RESULT] to Action Selection[InputPort&#45;0] -->
<g id="edge8" class="edge">
<title>Sample Mechanism&#45;&gt;Learning Mechanism for MappingProjection from Sample Mechanism[RESULT] to Action Selection[InputPort&#45;0]</title>
<path fill="none" stroke="orange" d="M513.3,-132.09C494.35,-141.43 470.45,-153.21 449.92,-163.33"/>
<polygon fill="orange" stroke="orange" points="448.62,-160.07 441.2,-167.63 451.72,-166.35 448.62,-160.07"/>
</g>
<!-- Action Selection -->
<g id="node4" class="node">
<title>Action Selection</title>
<ellipse fill="none" stroke="red" stroke-width="3" cx="196.95" cy="-330.5" rx="65.51" ry="18"/>
<text text-anchor="middle" x="196.95" y="-326.23" font-family="arial" font-size="12.00">Action Selection</text>
</g>
<!-- MappingProjection from Sample Mechanism[RESULT] to Action Selection[InputPort&#45;0]&#45;&gt;Action Selection -->
<g id="edge2" class="edge">
<title>MappingProjection from Sample Mechanism[RESULT] to Action Selection[InputPort&#45;0]&#45;&gt;Action Selection</title>
<path fill="none" stroke="black" d="M561.26,-273.2C474.72,-286.58 344.88,-306.64 265.84,-318.86"/>
<polygon fill="black" stroke="black" points="265.4,-315.38 256.05,-320.37 266.47,-322.3 265.4,-315.38"/>
</g>
<!-- Action Selection&#45;&gt;Learning Mechanism for MappingProjection from Sample Mechanism[RESULT] to Action Selection[InputPort&#45;0] -->
<g id="edge6" class="edge">
<title>Action Selection&#45;&gt;Learning Mechanism for MappingProjection from Sample Mechanism[RESULT] to Action Selection[InputPort&#45;0]</title>
<path fill="none" stroke="orange" d="M195.69,-311.32C195.34,-291.37 198,-259.62 215.95,-240.5 229.37,-226.21 246.3,-215.66 264.49,-207.9"/>
<polygon fill="orange" stroke="orange" points="265.58,-211.23 273.61,-204.31 263.02,-204.72 265.58,-211.23"/>
</g>
<!-- Action Selection&#45;&gt;PredictionError -->
<g id="edge4" class="edge">
<title>Action Selection&#45;&gt;PredictionError</title>
<path fill="none" stroke="orange" d="M155.7,-315.24C86.92,-289.28 -38.87,-231.17 11.95,-168.5 34.36,-140.87 126.55,-127.08 192.7,-120.62"/>
<polygon fill="orange" stroke="orange" points="192.76,-124.13 202.39,-119.72 192.11,-117.16 192.76,-124.13"/>
</g>
<!-- Learning Mechanism for MappingProjection from Sample Mechanism[RESULT] to Action Selection[InputPort&#45;0]&#45;&gt;MappingProjection from Sample Mechanism[RESULT] to Action Selection[InputPort&#45;0] -->
<g id="edge3" class="edge">
<title>Learning Mechanism for MappingProjection from Sample Mechanism[RESULT] to Action Selection[InputPort&#45;0]&#45;&gt;MappingProjection from Sample Mechanism[RESULT] to Action Selection[InputPort&#45;0]</title>
<path fill="none" stroke="orange" d="M465.2,-204.71C501.82,-215.18 548.55,-228.53 585.85,-239.19"/>
<polygon fill="orange" stroke="orange" points="584.57,-242.46 595.15,-241.84 586.5,-235.73 584.57,-242.46"/>
</g>
<!-- PredictionError&#45;&gt;Learning Mechanism for MappingProjection from Sample Mechanism[RESULT] to Action Selection[InputPort&#45;0] -->
<g id="edge7" class="edge">
<title>PredictionError&#45;&gt;Learning Mechanism for MappingProjection from Sample Mechanism[RESULT] to Action Selection[InputPort&#45;0]</title>
<path fill="none" stroke="orange" d="M293.41,-130.52C312.67,-140.01 337.91,-152.45 359.51,-163.1"/>
<polygon fill="orange" stroke="orange" points="357.91,-166.21 368.43,-167.5 361,-159.93 357.91,-166.21"/>
</g>
</g>
</svg>